<svg id="visual" viewBox="0 0 900 450" width="900" height="450" xmlns="http://www.w3.org/2000/svg" xmlns:xlink="http://www.w3.org/1999/xlink" version="1.1"><rect x="0" y="0" width="900" height="450" fill="#242424"></rect><path d="M0 323L16.7 319.8C33.3 316.7 66.7 310.3 100 309C133.3 307.7 166.7 311.3 200 315C233.3 318.7 266.7 322.3 300 321.2C333.3 320 366.7 314 400 311.2C433.3 308.3 466.7 308.7 500 310.8C533.3 313 566.7 317 600 316.5C633.3 316 666.7 311 700 313.8C733.3 316.7 766.7 327.3 800 328.7C833.3 330 866.7 322 883.3 318L900 314L900 451L883.3 451C866.7 451 833.3 451 800 451C766.7 451 733.3 451 700 451C666.7 451 633.3 451 600 451C566.7 451 533.3 451 500 451C466.7 451 433.3 451 400 451C366.7 451 333.3 451 300 451C266.7 451 233.3 451 200 451C166.7 451 133.3 451 100 451C66.7 451 33.3 451 16.7 451L0 451Z" fill="#2d2d2d"></path><path d="M0 351L16.7 349C33.3 347 66.7 343 100 340.3C133.3 337.7 166.7 336.3 200 341C233.3 345.7 266.7 356.3 300 360.8C333.3 365.3 366.7 363.7 400 361.2C433.3 358.7 466.7 355.3 500 354.3C533.3 353.3 566.7 354.7 600 357.7C633.3 360.7 666.7 365.3 700 363.3C733.3 361.3 766.7 352.7 800 350.8C833.3 349 866.7 354 883.3 356.5L900 359L900 451L883.3 451C866.7 451 833.3 451 800 451C766.7 451 733.3 451 700 451C666.7 451 633.3 451 600 451C566.7 451 533.3 451 500 451C466.7 451 433.3 451 400 451C366.7 451 333.3 451 300 451C266.7 451 233.3 451 200 451C166.7 451 133.3 451 100 451C66.7 451 33.3 451 16.7 451L0 451Z" fill="#202020"></path><path d="M0 398L16.7 398C33.3 398 66.7 398 100 397C133.3 396 166.7 394 200 393.7C233.3 393.3 266.7 394.7 300 392.3C333.3 390 366.7 384 400 380C433.3 376 466.7 374 500 373C533.3 372 566.7 372 600 371.2C633.3 370.3 666.7 368.7 700 370.3C733.3 372 766.7 377 800 382.2C833.3 387.3 866.7 392.7 883.3 395.3L900 398L900 451L883.3 451C866.7 451 833.3 451 800 451C766.7 451 733.3 451 700 451C666.7 451 633.3 451 600 451C566.7 451 533.3 451 500 451C466.7 451 433.3 451 400 451C366.7 451 333.3 451 300 451C266.7 451 233.3 451 200 451C166.7 451 133.3 451 100 451C66.7 451 33.3 451 16.7 451L0 451Z" fill="#141414"></path><path d="M0 416L16.7 414.5C33.3 413 66.7 410 100 407.7C133.3 405.3 166.7 403.7 200 404.8C233.3 406 266.7 410 300 413.8C333.3 417.7 366.7 421.3 400 421.8C433.3 422.3 466.7 419.7 500 415.5C533.3 411.3 566.7 405.7 600 404.3C633.3 403 666.7 406 700 406.5C733.3 407 766.7 405 800 404.8C833.3 404.7 866.7 406.3 883.3 407.2L900 408L900 451L883.3 451C866.7 451 833.3 451 800 451C766.7 451 733.3 451 700 451C666.7 451 633.3 451 600 451C566.7 451 533.3 451 500 451C466.7 451 433.3 451 400 451C366.7 451 333.3 451 300 451C266.7 451 233.3 451 200 451C166.7 451 133.3 451 100 451C66.7 451 33.3 451 16.7 451L0 451Z" fill="#000000"></path></svg>